<mxfile host="app.diagrams.net" modified="2021-12-06T03:47:23.544Z" agent="5.0 (Windows NT 10.0; Win64; x64) AppleWebKit/537.36 (KHTML, like Gecko) Chrome/96.0.4664.45 Safari/537.36" etag="TPsUj3X2-UxrbTndI3xV" version="15.8.9" type="github">
  <diagram id="FKBwarLhlQA3uH3MAy26" name="Page-1">
    <mxGraphModel dx="1185" dy="642" grid="1" gridSize="10" guides="1" tooltips="1" connect="1" arrows="1" fold="1" page="1" pageScale="1" pageWidth="827" pageHeight="1169" background="none" math="0" shadow="0">
      <root>
        <mxCell id="0" />
        <mxCell id="1" parent="0" />
        <mxCell id="ul-qNoM_9IcqDdoWjhjD-2" value="" style="endArrow=block;html=1;rounded=0;endFill=1;" parent="1" edge="1">
          <mxGeometry width="50" height="50" relative="1" as="geometry">
            <mxPoint x="120" y="920" as="sourcePoint" />
            <mxPoint x="810" y="920" as="targetPoint" />
          </mxGeometry>
        </mxCell>
        <mxCell id="ul-qNoM_9IcqDdoWjhjD-3" value="" style="endArrow=block;html=1;rounded=0;endFill=1;" parent="1" edge="1">
          <mxGeometry width="50" height="50" relative="1" as="geometry">
            <mxPoint x="160" y="930" as="sourcePoint" />
            <mxPoint x="160" y="800" as="targetPoint" />
          </mxGeometry>
        </mxCell>
        <mxCell id="ul-qNoM_9IcqDdoWjhjD-4" value="" style="endArrow=none;html=1;rounded=0;" parent="1" edge="1">
          <mxGeometry width="50" height="50" relative="1" as="geometry">
            <mxPoint x="160" y="880" as="sourcePoint" />
            <mxPoint x="480" y="920" as="targetPoint" />
            <Array as="points">
              <mxPoint x="320" y="880" />
              <mxPoint x="320" y="840" />
              <mxPoint x="480" y="840" />
            </Array>
          </mxGeometry>
        </mxCell>
        <mxCell id="ul-qNoM_9IcqDdoWjhjD-15" value="200mA" style="text;html=1;strokeColor=none;fillColor=none;align=center;verticalAlign=middle;whiteSpace=wrap;rounded=0;sketch=0;" parent="1" vertex="1">
          <mxGeometry x="100" y="865" width="60" height="30" as="geometry" />
        </mxCell>
        <mxCell id="ul-qNoM_9IcqDdoWjhjD-16" value="400mA" style="text;html=1;strokeColor=none;fillColor=none;align=center;verticalAlign=middle;whiteSpace=wrap;rounded=0;sketch=0;" parent="1" vertex="1">
          <mxGeometry x="100" y="826" width="60" height="30" as="geometry" />
        </mxCell>
        <mxCell id="ul-qNoM_9IcqDdoWjhjD-17" value="" style="endArrow=none;dashed=1;html=1;dashPattern=1 4;strokeWidth=1;rounded=0;exitX=1;exitY=0.5;exitDx=0;exitDy=0;strokeColor=#66B2FF;" parent="1" source="ul-qNoM_9IcqDdoWjhjD-16" edge="1">
          <mxGeometry width="50" height="50" relative="1" as="geometry">
            <mxPoint x="330" y="820" as="sourcePoint" />
            <mxPoint x="320" y="841" as="targetPoint" />
          </mxGeometry>
        </mxCell>
        <mxCell id="ul-qNoM_9IcqDdoWjhjD-20" style="edgeStyle=orthogonalEdgeStyle;rounded=0;orthogonalLoop=1;jettySize=auto;html=1;exitX=0.5;exitY=1;exitDx=0;exitDy=0;endArrow=block;endFill=1;strokeColor=#CC0000;strokeWidth=1;" parent="1" source="ul-qNoM_9IcqDdoWjhjD-18" edge="1">
          <mxGeometry relative="1" as="geometry">
            <mxPoint x="320.1428571428571" y="840" as="targetPoint" />
          </mxGeometry>
        </mxCell>
        <mxCell id="ul-qNoM_9IcqDdoWjhjD-18" value="Spring" style="text;html=1;strokeColor=none;fillColor=none;align=center;verticalAlign=middle;whiteSpace=wrap;rounded=0;sketch=0;" parent="1" vertex="1">
          <mxGeometry x="290" y="790" width="60" height="30" as="geometry" />
        </mxCell>
        <mxCell id="ul-qNoM_9IcqDdoWjhjD-21" value="" style="endArrow=classic;startArrow=classic;html=1;rounded=0;strokeColor=#66B2FF;strokeWidth=1;" parent="1" edge="1">
          <mxGeometry width="50" height="50" relative="1" as="geometry">
            <mxPoint x="320" y="949" as="sourcePoint" />
            <mxPoint x="480" y="949" as="targetPoint" />
          </mxGeometry>
        </mxCell>
        <mxCell id="ul-qNoM_9IcqDdoWjhjD-25" value="≤20sec" style="text;html=1;strokeColor=none;fillColor=none;align=center;verticalAlign=middle;whiteSpace=wrap;rounded=0;sketch=0;" parent="1" vertex="1">
          <mxGeometry x="210" y="929" width="60" height="30" as="geometry" />
        </mxCell>
        <mxCell id="ul-qNoM_9IcqDdoWjhjD-26" value="" style="endArrow=classic;startArrow=classic;html=1;rounded=0;strokeColor=#66B2FF;strokeWidth=1;" parent="1" edge="1">
          <mxGeometry width="50" height="50" relative="1" as="geometry">
            <mxPoint x="160.0000000000001" y="949" as="sourcePoint" />
            <mxPoint x="320" y="949" as="targetPoint" />
          </mxGeometry>
        </mxCell>
        <mxCell id="ul-qNoM_9IcqDdoWjhjD-28" value="≤20sec" style="text;html=1;strokeColor=none;fillColor=none;align=center;verticalAlign=middle;whiteSpace=wrap;rounded=0;sketch=0;" parent="1" vertex="1">
          <mxGeometry x="370" y="929" width="60" height="30" as="geometry" />
        </mxCell>
        <mxCell id="ul-qNoM_9IcqDdoWjhjD-30" value="" style="endArrow=none;dashed=1;html=1;dashPattern=1 3;strokeWidth=1;rounded=0;fillColor=#dae8fc;strokeColor=#6c8ebf;" parent="1" edge="1">
          <mxGeometry width="50" height="50" relative="1" as="geometry">
            <mxPoint x="320" y="1000" as="sourcePoint" />
            <mxPoint x="320" y="880" as="targetPoint" />
          </mxGeometry>
        </mxCell>
        <mxCell id="ul-qNoM_9IcqDdoWjhjD-31" value="" style="endArrow=none;dashed=1;html=1;dashPattern=1 3;strokeWidth=1;rounded=0;fillColor=#dae8fc;strokeColor=#6c8ebf;" parent="1" edge="1">
          <mxGeometry width="50" height="50" relative="1" as="geometry">
            <mxPoint x="480" y="1000" as="sourcePoint" />
            <mxPoint x="480" y="920" as="targetPoint" />
          </mxGeometry>
        </mxCell>
        <mxCell id="ul-qNoM_9IcqDdoWjhjD-33" value="20sec x 4 x 200mA&lt;br&gt;= 16000mA" style="text;html=1;strokeColor=none;fillColor=none;align=center;verticalAlign=middle;whiteSpace=wrap;rounded=0;sketch=0;" parent="1" vertex="1">
          <mxGeometry x="160" y="959" width="160" height="30" as="geometry" />
        </mxCell>
        <mxCell id="ul-qNoM_9IcqDdoWjhjD-34" value="20sec x 4 x 400mA&lt;br&gt;= 32000mA" style="text;html=1;strokeColor=none;fillColor=none;align=center;verticalAlign=middle;whiteSpace=wrap;rounded=0;sketch=0;" parent="1" vertex="1">
          <mxGeometry x="320" y="959" width="160" height="30" as="geometry" />
        </mxCell>
        <mxCell id="ul-qNoM_9IcqDdoWjhjD-37" value="" style="endArrow=none;dashed=1;html=1;dashPattern=1 3;strokeWidth=1;rounded=0;fillColor=#dae8fc;strokeColor=#6c8ebf;" parent="1" edge="1">
          <mxGeometry width="50" height="50" relative="1" as="geometry">
            <mxPoint x="160" y="1000" as="sourcePoint" />
            <mxPoint x="160" y="920" as="targetPoint" />
          </mxGeometry>
        </mxCell>
        <mxCell id="ul-qNoM_9IcqDdoWjhjD-39" value="" style="endArrow=none;html=1;rounded=0;strokeColor=#000000;strokeWidth=1;" parent="1" edge="1">
          <mxGeometry width="50" height="50" relative="1" as="geometry">
            <mxPoint x="720" y="920" as="sourcePoint" />
            <mxPoint x="800" y="880" as="targetPoint" />
            <Array as="points">
              <mxPoint x="720" y="880" />
            </Array>
          </mxGeometry>
        </mxCell>
        <mxCell id="ul-qNoM_9IcqDdoWjhjD-40" value="" style="endArrow=classic;startArrow=classic;html=1;rounded=0;strokeColor=#66B2FF;strokeWidth=1;" parent="1" edge="1">
          <mxGeometry width="50" height="50" relative="1" as="geometry">
            <mxPoint x="480" y="950" as="sourcePoint" />
            <mxPoint x="720" y="950" as="targetPoint" />
          </mxGeometry>
        </mxCell>
        <mxCell id="ul-qNoM_9IcqDdoWjhjD-41" value="" style="endArrow=none;dashed=1;html=1;dashPattern=1 3;strokeWidth=1;rounded=0;fillColor=#dae8fc;strokeColor=#6c8ebf;" parent="1" edge="1">
          <mxGeometry width="50" height="50" relative="1" as="geometry">
            <mxPoint x="719" y="1000" as="sourcePoint" />
            <mxPoint x="719" y="920" as="targetPoint" />
          </mxGeometry>
        </mxCell>
        <mxCell id="ul-qNoM_9IcqDdoWjhjD-42" value="30sec x 4 x 400mA&lt;br&gt;= 48000mA" style="text;html=1;strokeColor=none;fillColor=none;align=center;verticalAlign=middle;whiteSpace=wrap;rounded=0;sketch=0;" parent="1" vertex="1">
          <mxGeometry x="520" y="959" width="160" height="30" as="geometry" />
        </mxCell>
        <mxCell id="ul-qNoM_9IcqDdoWjhjD-43" value="≥30sec" style="text;html=1;strokeColor=none;fillColor=none;align=center;verticalAlign=middle;whiteSpace=wrap;rounded=0;sketch=0;" parent="1" vertex="1">
          <mxGeometry x="570" y="929" width="60" height="30" as="geometry" />
        </mxCell>
        <mxCell id="DiQnw8ES7WryA-un-uVh-1" value="" style="endArrow=none;html=1;rounded=0;" edge="1" parent="1">
          <mxGeometry width="50" height="50" relative="1" as="geometry">
            <mxPoint x="121" y="720" as="sourcePoint" />
            <mxPoint x="121" y="260" as="targetPoint" />
          </mxGeometry>
        </mxCell>
        <mxCell id="DiQnw8ES7WryA-un-uVh-2" value="" style="endArrow=none;html=1;rounded=0;" edge="1" parent="1">
          <mxGeometry width="50" height="50" relative="1" as="geometry">
            <mxPoint x="80" y="680" as="sourcePoint" />
            <mxPoint x="550" y="680" as="targetPoint" />
          </mxGeometry>
        </mxCell>
        <mxCell id="DiQnw8ES7WryA-un-uVh-5" value="" style="endArrow=none;html=1;rounded=0;entryX=1;entryY=0;entryDx=0;entryDy=0;" edge="1" parent="1" target="DiQnw8ES7WryA-un-uVh-10">
          <mxGeometry width="50" height="50" relative="1" as="geometry">
            <mxPoint x="119.5" y="680" as="sourcePoint" />
            <mxPoint x="520" y="270" as="targetPoint" />
            <Array as="points">
              <mxPoint x="150" y="659" />
              <mxPoint x="486" y="290" />
            </Array>
          </mxGeometry>
        </mxCell>
        <mxCell id="DiQnw8ES7WryA-un-uVh-6" value="" style="verticalLabelPosition=bottom;verticalAlign=top;html=1;shape=mxgraph.basic.orthogonal_triangle;rotation=-90;strokeColor=none;sketch=1;strokeWidth=0;fillColor=#3399FF;" vertex="1" parent="1">
          <mxGeometry x="126.09" y="656.61" width="18.8" height="28.54" as="geometry" />
        </mxCell>
        <mxCell id="DiQnw8ES7WryA-un-uVh-10" value="" style="shape=manualInput;whiteSpace=wrap;html=1;sketch=1;strokeColor=default;strokeWidth=0;fillColor=#3399FF;size=13;" vertex="1" parent="1">
          <mxGeometry x="486" y="277" width="34" height="403" as="geometry" />
        </mxCell>
        <mxCell id="DiQnw8ES7WryA-un-uVh-11" value="10" style="text;html=1;strokeColor=none;fillColor=none;align=center;verticalAlign=middle;whiteSpace=wrap;rounded=0;sketch=1;fontSize=10;" vertex="1" parent="1">
          <mxGeometry x="144.75" y="690" width="35.25" height="15.25" as="geometry" />
        </mxCell>
        <mxCell id="DiQnw8ES7WryA-un-uVh-17" value="400" style="text;html=1;strokeColor=none;fillColor=none;align=center;verticalAlign=middle;whiteSpace=wrap;rounded=0;sketch=1;fontSize=10;" vertex="1" parent="1">
          <mxGeometry x="41.12" y="633" width="90" height="13.25" as="geometry" />
        </mxCell>
        <mxCell id="DiQnw8ES7WryA-un-uVh-24" value="20" style="text;html=1;strokeColor=none;fillColor=none;align=center;verticalAlign=middle;whiteSpace=wrap;rounded=0;sketch=1;fontSize=10;" vertex="1" parent="1">
          <mxGeometry x="180" y="690" width="35.25" height="15.25" as="geometry" />
        </mxCell>
        <mxCell id="DiQnw8ES7WryA-un-uVh-25" value="30&lt;span style=&quot;color: rgba(0 , 0 , 0 , 0) ; font-family: monospace ; font-size: 0px&quot;&gt;%3CmxGraphModel%3E%3Croot%3E%3CmxCell%20id%3D%220%22%2F%3E%3CmxCell%20id%3D%221%22%20parent%3D%220%22%2F%3E%3CmxCell%20id%3D%222%22%20value%3D%2210%22%20style%3D%22text%3Bhtml%3D1%3BstrokeColor%3Dnone%3BfillColor%3Dnone%3Balign%3Dcenter%3BverticalAlign%3Dmiddle%3BwhiteSpace%3Dwrap%3Brounded%3D0%3Bsketch%3D1%3BfontSize%3D10%3B%22%20vertex%3D%221%22%20parent%3D%221%22%3E%3CmxGeometry%20x%3D%22144.75%22%20y%3D%22690%22%20width%3D%2235.25%22%20height%3D%2215.25%22%20as%3D%22geometry%22%2F%3E%3C%2FmxCell%3E%3C%2Froot%3E%3C%2FmxGraphModel%3E&lt;/span&gt;" style="text;html=1;strokeColor=none;fillColor=none;align=center;verticalAlign=middle;whiteSpace=wrap;rounded=0;sketch=1;fontSize=10;" vertex="1" parent="1">
          <mxGeometry x="222.37" y="690" width="35.25" height="15.25" as="geometry" />
        </mxCell>
        <mxCell id="DiQnw8ES7WryA-un-uVh-26" value="40" style="text;html=1;strokeColor=none;fillColor=none;align=center;verticalAlign=middle;whiteSpace=wrap;rounded=0;sketch=1;fontSize=10;" vertex="1" parent="1">
          <mxGeometry x="260" y="690" width="35.25" height="15.25" as="geometry" />
        </mxCell>
        <mxCell id="DiQnw8ES7WryA-un-uVh-27" value="50" style="text;html=1;strokeColor=none;fillColor=none;align=center;verticalAlign=middle;whiteSpace=wrap;rounded=0;sketch=1;fontSize=10;" vertex="1" parent="1">
          <mxGeometry x="302.37" y="690" width="35.25" height="15.25" as="geometry" />
        </mxCell>
        <mxCell id="DiQnw8ES7WryA-un-uVh-29" value="60" style="text;html=1;strokeColor=none;fillColor=none;align=center;verticalAlign=middle;whiteSpace=wrap;rounded=0;sketch=1;fontSize=10;" vertex="1" parent="1">
          <mxGeometry x="340.5" y="690" width="35.25" height="15.25" as="geometry" />
        </mxCell>
        <mxCell id="DiQnw8ES7WryA-un-uVh-30" value="70" style="text;html=1;strokeColor=none;fillColor=none;align=center;verticalAlign=middle;whiteSpace=wrap;rounded=0;sketch=1;fontSize=10;" vertex="1" parent="1">
          <mxGeometry x="384.5" y="690" width="35.25" height="15.25" as="geometry" />
        </mxCell>
        <mxCell id="DiQnw8ES7WryA-un-uVh-31" value="80" style="text;html=1;strokeColor=none;fillColor=none;align=center;verticalAlign=middle;whiteSpace=wrap;rounded=0;sketch=1;fontSize=10;" vertex="1" parent="1">
          <mxGeometry x="419.75" y="690" width="35.25" height="15.25" as="geometry" />
        </mxCell>
        <mxCell id="DiQnw8ES7WryA-un-uVh-32" value="90" style="text;html=1;strokeColor=none;fillColor=none;align=center;verticalAlign=middle;whiteSpace=wrap;rounded=0;sketch=1;fontSize=10;" vertex="1" parent="1">
          <mxGeometry x="460" y="690" width="35.25" height="15.25" as="geometry" />
        </mxCell>
        <mxCell id="DiQnw8ES7WryA-un-uVh-33" value="100" style="text;html=1;strokeColor=none;fillColor=none;align=center;verticalAlign=middle;whiteSpace=wrap;rounded=0;sketch=1;fontSize=10;" vertex="1" parent="1">
          <mxGeometry x="500" y="690" width="35.25" height="15.25" as="geometry" />
        </mxCell>
        <mxCell id="DiQnw8ES7WryA-un-uVh-34" value="800" style="text;html=1;strokeColor=none;fillColor=none;align=center;verticalAlign=middle;whiteSpace=wrap;rounded=0;sketch=1;fontSize=10;" vertex="1" parent="1">
          <mxGeometry x="41.120000000000005" y="591" width="90" height="15.25" as="geometry" />
        </mxCell>
        <mxCell id="DiQnw8ES7WryA-un-uVh-35" value="1200" style="text;html=1;strokeColor=none;fillColor=none;align=center;verticalAlign=middle;whiteSpace=wrap;rounded=0;sketch=1;fontSize=10;" vertex="1" parent="1">
          <mxGeometry x="41.120000000000005" y="553" width="90" height="15.25" as="geometry" />
        </mxCell>
        <mxCell id="DiQnw8ES7WryA-un-uVh-39" value="1600" style="text;html=1;strokeColor=none;fillColor=none;align=center;verticalAlign=middle;whiteSpace=wrap;rounded=0;sketch=1;fontSize=10;" vertex="1" parent="1">
          <mxGeometry x="41.120000000000005" y="512" width="90" height="15.25" as="geometry" />
        </mxCell>
        <mxCell id="DiQnw8ES7WryA-un-uVh-40" value="2000" style="text;html=1;strokeColor=none;fillColor=none;align=center;verticalAlign=middle;whiteSpace=wrap;rounded=0;sketch=1;fontSize=10;" vertex="1" parent="1">
          <mxGeometry x="41.120000000000005" y="471" width="90" height="15.25" as="geometry" />
        </mxCell>
        <mxCell id="DiQnw8ES7WryA-un-uVh-41" value="2400" style="text;html=1;strokeColor=none;fillColor=none;align=center;verticalAlign=middle;whiteSpace=wrap;rounded=0;sketch=1;fontSize=10;" vertex="1" parent="1">
          <mxGeometry x="41.120000000000005" y="432.38" width="90" height="15.25" as="geometry" />
        </mxCell>
        <mxCell id="DiQnw8ES7WryA-un-uVh-42" value="2800" style="text;html=1;strokeColor=none;fillColor=none;align=center;verticalAlign=middle;whiteSpace=wrap;rounded=0;sketch=1;fontSize=10;" vertex="1" parent="1">
          <mxGeometry x="41.120000000000005" y="391" width="90" height="15.25" as="geometry" />
        </mxCell>
        <mxCell id="DiQnw8ES7WryA-un-uVh-43" value="3200" style="text;html=1;strokeColor=none;fillColor=none;align=center;verticalAlign=middle;whiteSpace=wrap;rounded=0;sketch=1;fontSize=10;" vertex="1" parent="1">
          <mxGeometry x="41.120000000000005" y="351.75" width="90" height="15.25" as="geometry" />
        </mxCell>
        <mxCell id="DiQnw8ES7WryA-un-uVh-44" value="3600" style="text;html=1;strokeColor=none;fillColor=none;align=center;verticalAlign=middle;whiteSpace=wrap;rounded=0;sketch=1;fontSize=10;" vertex="1" parent="1">
          <mxGeometry x="41.120000000000005" y="311" width="90" height="15.25" as="geometry" />
        </mxCell>
        <mxCell id="DiQnw8ES7WryA-un-uVh-45" value="4000" style="text;html=1;strokeColor=none;fillColor=none;align=center;verticalAlign=middle;whiteSpace=wrap;rounded=0;sketch=1;fontSize=10;" vertex="1" parent="1">
          <mxGeometry x="41.120000000000005" y="271" width="90" height="15.25" as="geometry" />
        </mxCell>
        <mxCell id="DiQnw8ES7WryA-un-uVh-58" value="200" style="text;html=1;strokeColor=none;fillColor=none;align=center;verticalAlign=middle;whiteSpace=wrap;rounded=0;sketch=1;fontSize=10;" vertex="1" parent="1">
          <mxGeometry x="50" y="655.26" width="71" height="13.25" as="geometry" />
        </mxCell>
        <mxCell id="DiQnw8ES7WryA-un-uVh-59" value="3900" style="text;html=1;strokeColor=none;fillColor=none;align=center;verticalAlign=middle;whiteSpace=wrap;rounded=0;sketch=1;fontSize=10;" vertex="1" parent="1">
          <mxGeometry x="50" y="283.25" width="70" height="15.25" as="geometry" />
        </mxCell>
        <mxCell id="DiQnw8ES7WryA-un-uVh-60" value="1000" style="text;html=1;strokeColor=none;fillColor=none;align=center;verticalAlign=middle;whiteSpace=wrap;rounded=0;sketch=1;fontSize=10;" vertex="1" parent="1">
          <mxGeometry x="50" y="571.75" width="70" height="15.25" as="geometry" />
        </mxCell>
        <mxCell id="DiQnw8ES7WryA-un-uVh-61" value="" style="endArrow=none;dashed=1;html=1;dashPattern=1 3;strokeWidth=2;rounded=0;fontSize=10;exitX=1.009;exitY=0.387;exitDx=0;exitDy=0;spacing=0;exitPerimeter=0;entryX=1.066;entryY=0.994;entryDx=0;entryDy=0;entryPerimeter=0;" edge="1" parent="1" source="DiQnw8ES7WryA-un-uVh-58" target="DiQnw8ES7WryA-un-uVh-6">
          <mxGeometry width="50" height="50" relative="1" as="geometry">
            <mxPoint x="340" y="510" as="sourcePoint" />
            <mxPoint x="160" y="662" as="targetPoint" />
          </mxGeometry>
        </mxCell>
        <mxCell id="DiQnw8ES7WryA-un-uVh-64" value="" style="endArrow=none;dashed=1;html=1;dashPattern=1 3;strokeWidth=1;rounded=0;fontSize=10;exitX=1;exitY=0.5;exitDx=0;exitDy=0;spacing=0;" edge="1" parent="1">
          <mxGeometry width="50" height="50" relative="1" as="geometry">
            <mxPoint x="121.12" y="579.625" as="sourcePoint" />
            <mxPoint x="223" y="680" as="targetPoint" />
            <Array as="points">
              <mxPoint x="223" y="580" />
            </Array>
          </mxGeometry>
        </mxCell>
        <mxCell id="DiQnw8ES7WryA-un-uVh-67" value="" style="endArrow=none;dashed=1;html=1;dashPattern=1 3;strokeWidth=2;rounded=0;fontSize=10;spacing=0;entryX=-0.005;entryY=1.008;entryDx=0;entryDy=0;entryPerimeter=0;" edge="1" parent="1" target="DiQnw8ES7WryA-un-uVh-10">
          <mxGeometry width="50" height="50" relative="1" as="geometry">
            <mxPoint x="121" y="290" as="sourcePoint" />
            <mxPoint x="321" y="498.63" as="targetPoint" />
            <Array as="points">
              <mxPoint x="486" y="290" />
            </Array>
          </mxGeometry>
        </mxCell>
        <mxCell id="DiQnw8ES7WryA-un-uVh-69" value="" style="endArrow=none;dashed=1;html=1;dashPattern=1 2;strokeWidth=1;rounded=0;fontSize=10;exitX=1;exitY=0.5;exitDx=0;exitDy=0;spacing=0;" edge="1" parent="1">
          <mxGeometry width="50" height="50" relative="1" as="geometry">
            <mxPoint x="121" y="481.005" as="sourcePoint" />
            <mxPoint x="310" y="680" as="targetPoint" />
            <Array as="points">
              <mxPoint x="312" y="480" />
            </Array>
          </mxGeometry>
        </mxCell>
      </root>
    </mxGraphModel>
  </diagram>
</mxfile>
